<svg xmlns="http://www.w3.org/2000/svg" xmlns:xlink="http://www.w3.org/1999/xlink" width="16" height="16" viewBox="0 0 16 16" fill="none"><path d="M13.0019 2.66667L3.00191 2.66667C2.94732 2.66667 2.89623 2.6781 2.84191 2.6781C2.78758 2.6781 2.72402 2.70096 2.67048 2.70096C2.61695 2.70096 2.57414 2.7194 2.52191 2.73524C2.46968 2.75109 2.41234 2.7715 2.36191 2.79239C2.31148 2.81327 2.26148 2.83522 2.21334 2.86096C2.1652 2.88669 2.12158 2.92206 2.0762 2.95239C2.03082 2.98271 1.98125 3.00919 1.93905 3.04381C1.89686 3.07845 1.86337 3.1195 1.82477 3.1581C1.78617 3.1967 1.74511 3.23019 1.71048 3.27239C1.67586 3.31458 1.64938 3.36415 1.61905 3.40953C1.58873 3.45492 1.55335 3.49853 1.52763 3.54667C1.50189 3.59481 1.47994 3.64481 1.45905 3.69524C1.43817 3.74568 1.41776 3.80301 1.40191 3.85524C1.38607 3.90748 1.36763 3.95028 1.36763 4.00381C1.36763 4.05735 1.34477 4.12092 1.34477 4.17524C1.34477 4.22956 1.33334 4.28066 1.33334 4.33524L1.33334 10.3352C1.33334 10.3898 1.34477 10.4409 1.34477 10.4952C1.34477 10.5496 1.36763 10.6017 1.36763 10.6552C1.36763 10.7088 1.38607 10.763 1.40191 10.8152C1.41776 10.8674 1.43817 10.9248 1.45905 10.9752C1.47994 11.0257 1.50189 11.0757 1.52763 11.1238C1.55335 11.1719 1.58873 11.2156 1.61905 11.261C1.64938 11.3064 1.67586 11.3445 1.71048 11.3867C1.74511 11.4289 1.78617 11.4738 1.82477 11.5124C1.86337 11.551 1.89686 11.5921 1.93905 11.6267C1.98125 11.6613 2.03082 11.6878 2.0762 11.7181C2.12158 11.7484 2.1652 11.7724 2.21334 11.7981C2.26148 11.8238 2.31148 11.8572 2.36191 11.8781C2.41234 11.899 2.46968 11.9079 2.52191 11.9238C2.57414 11.9396 2.61695 11.9695 2.67048 11.9695C2.72402 11.9695 2.78758 11.9924 2.84191 11.9924C2.89623 11.9924 2.94732 12.0038 3.00191 12.0038L5.9962 12.0038L5.9962 10.9981L3.00191 10.9981C2.95814 10.9981 2.9077 10.9867 2.86477 10.9867C2.82184 10.9867 2.79092 10.9691 2.75048 10.9524C2.71004 10.9357 2.66116 10.9081 2.62477 10.8838C2.58838 10.8595 2.56429 10.8347 2.53334 10.8038C2.50239 10.7729 2.46623 10.7374 2.44191 10.701C2.41759 10.6646 2.40152 10.6271 2.38477 10.5867C2.36802 10.5462 2.35048 10.5039 2.35048 10.461C2.35048 10.418 2.33905 10.379 2.33905 10.3352L2.33905 4.33524C2.33905 4.29147 2.35048 4.24103 2.35048 4.1981C2.35048 4.15517 2.36802 4.12425 2.38477 4.08381C2.40152 4.04337 2.41759 3.99449 2.44191 3.9581C2.46623 3.92171 2.50239 3.89762 2.53334 3.86667C2.56429 3.83572 2.58838 3.79956 2.62477 3.77524C2.66116 3.75092 2.71004 3.73485 2.75048 3.7181C2.79092 3.70135 2.82184 3.68381 2.86477 3.68381C2.9077 3.68381 2.95814 3.67239 3.00191 3.67239L13.0019 3.67239C13.0457 3.67239 13.0847 3.68381 13.1276 3.68381C13.1706 3.68381 13.2129 3.70135 13.2533 3.7181C13.2938 3.73485 13.3312 3.75092 13.3676 3.77524C13.404 3.79956 13.4396 3.83572 13.4705 3.86667C13.5014 3.89762 13.5261 3.92171 13.5505 3.9581C13.5748 3.99449 13.6023 4.04337 13.6191 4.08381C13.6358 4.12425 13.6533 4.15517 13.6533 4.1981C13.6533 4.24103 13.6648 4.29147 13.6648 4.33524L13.6648 10.3352C13.6648 10.379 13.6533 10.418 13.6533 10.461C13.6533 10.5039 13.6358 10.5462 13.6191 10.5867C13.6023 10.6271 13.5748 10.6646 13.5505 10.701C13.5261 10.7374 13.5014 10.7729 13.4705 10.8038C13.4396 10.8347 13.404 10.8595 13.3676 10.8838C13.3312 10.9081 13.2938 10.9357 13.2533 10.9524C13.2129 10.9691 13.1706 10.9867 13.1276 10.9867C13.0847 10.9867 13.0457 10.9981 13.0019 10.9981L12.6362 10.9981L5.9962 10.9981L5.9962 12.0038L13.3219 11.9695C13.369 11.9695 13.413 11.9484 13.4591 11.9352C13.5052 11.9221 13.5514 11.9065 13.5962 11.8895C13.641 11.8725 13.6787 11.8533 13.7219 11.8324C13.765 11.8115 13.8064 11.7883 13.8476 11.7638C13.8889 11.7393 13.9344 11.7117 13.9733 11.6838C14.0123 11.6559 14.0512 11.635 14.0876 11.6038C14.124 11.5726 14.1569 11.5352 14.1905 11.501C14.224 11.4668 14.2514 11.4351 14.2819 11.3981C14.3124 11.3611 14.3461 11.3233 14.3733 11.2838C14.4005 11.2443 14.4296 11.1998 14.4533 11.1581C14.477 11.1164 14.4904 11.0759 14.5105 11.0324C14.5306 10.9889 14.5514 10.9404 14.5676 10.8952C14.5838 10.8501 14.6011 10.8044 14.6133 10.7581C14.6256 10.7118 14.6476 10.6682 14.6476 10.621C14.6476 10.5737 14.6591 10.5202 14.6591 10.4724C14.6591 10.4247 14.6705 10.3832 14.6705 10.3352L14.6705 4.33524C14.6705 4.28066 14.6591 4.22956 14.6591 4.17524C14.6591 4.12092 14.6362 4.05735 14.6362 4.00381C14.6362 3.95028 14.6063 3.90748 14.5905 3.85524C14.5747 3.80301 14.5656 3.74568 14.5448 3.69524C14.5239 3.64481 14.4905 3.59481 14.4648 3.54667C14.439 3.49853 14.4151 3.45492 14.3848 3.40953C14.3544 3.36415 14.3279 3.31458 14.2933 3.27239C14.2587 3.23019 14.2177 3.1967 14.1791 3.1581C14.1405 3.1195 14.0955 3.07845 14.0533 3.04381C14.0111 3.00919 13.973 2.98271 13.9276 2.95239C13.8822 2.92206 13.8386 2.88669 13.7905 2.86096C13.7424 2.83522 13.6924 2.81327 13.6419 2.79239C13.5914 2.7715 13.5341 2.75109 13.4819 2.73524C13.4297 2.7194 13.3754 2.70096 13.3219 2.70096C13.2684 2.70096 13.2162 2.6781 13.1619 2.6781C13.1076 2.6781 13.0565 2.66667 13.0019 2.66667Z"   fill="#333333" ></path></svg>