<svg xmlns="http://www.w3.org/2000/svg" xmlns:xlink="http://www.w3.org/1999/xlink" width="16" height="16" viewBox="0 0 16 16" fill="none"><path d="M13 3.66666L3 3.66666C2.95623 3.66666 2.91287 3.67093 2.86994 3.67947C2.82701 3.68801 2.78532 3.70066 2.74488 3.71741C2.70443 3.73416 2.66601 3.7547 2.62962 3.77902C2.59323 3.80334 2.55955 3.83097 2.52859 3.86192C2.49764 3.89288 2.47001 3.92656 2.44569 3.96295C2.42137 3.99934 2.40083 4.03776 2.38408 4.07821C2.36733 4.11865 2.35468 4.16034 2.34614 4.20327C2.3376 4.2462 2.33333 4.28956 2.33333 4.33333L2.33333 10.3333C2.33333 10.3771 2.3376 10.4205 2.34614 10.4634C2.35468 10.5063 2.36733 10.548 2.38408 10.5885C2.40083 10.6289 2.42137 10.6673 2.44569 10.7037C2.47001 10.7401 2.49764 10.7738 2.52859 10.8047C2.55955 10.8357 2.59323 10.8633 2.62962 10.8877C2.66601 10.912 2.70443 10.9325 2.74488 10.9493C2.78532 10.966 2.82701 10.9787 2.86994 10.9872C2.91287 10.9957 2.95623 11 3 11L6 11L6 12L3 12C2.94541 12 2.89096 11.9973 2.83664 11.992C2.78231 11.9866 2.72839 11.9786 2.67485 11.968C2.62131 11.9573 2.56843 11.9441 2.51619 11.9283C2.46396 11.9124 2.41263 11.894 2.36219 11.8731C2.31176 11.8523 2.26248 11.8289 2.21434 11.8032C2.1662 11.7775 2.11943 11.7495 2.07405 11.7191C2.02867 11.6888 1.98487 11.6563 1.94268 11.6217C1.90048 11.5871 1.86009 11.5505 1.82149 11.5119C1.78289 11.4733 1.74628 11.4329 1.71165 11.3907C1.67702 11.3485 1.64454 11.3047 1.61422 11.2593C1.58389 11.2139 1.55586 11.1671 1.53013 11.119C1.5044 11.0709 1.48109 11.0216 1.4602 10.9711C1.43931 10.9207 1.42094 10.8693 1.4051 10.8171C1.38925 10.7649 1.37601 10.712 1.36536 10.6585C1.35471 10.6049 1.34671 10.551 1.34136 10.4967C1.33601 10.4423 1.33333 10.3879 1.33333 10.3333L1.33333 4.33333C1.33333 4.27874 1.33601 4.22429 1.34136 4.16997C1.34671 4.11564 1.35471 4.06172 1.36536 4.00818C1.37601 3.95464 1.38925 3.90176 1.4051 3.84952C1.42094 3.79729 1.43931 3.74596 1.4602 3.69552C1.48109 3.64509 1.5044 3.59581 1.53013 3.54767C1.55586 3.49953 1.58389 3.45276 1.61422 3.40738C1.64454 3.362 1.67702 3.31821 1.71165 3.27601C1.74628 3.23382 1.78289 3.19342 1.82149 3.15482C1.86009 3.11622 1.90048 3.07961 1.94268 3.04498C1.98487 3.01035 2.02867 2.97788 2.07405 2.94755C2.11943 2.91722 2.1662 2.88919 2.21434 2.86346C2.26248 2.83773 2.31176 2.81442 2.36219 2.79353C2.41263 2.77264 2.46396 2.75428 2.51619 2.73843C2.56843 2.72259 2.62131 2.70934 2.67485 2.69869C2.72839 2.68804 2.78231 2.68004 2.83664 2.67469C2.89096 2.66934 2.94541 2.66666 3 2.66666L13 2.66666C13.0546 2.66666 13.109 2.66934 13.1633 2.67469C13.2177 2.68004 13.2716 2.68804 13.3251 2.69869C13.3787 2.70934 13.4316 2.72259 13.4838 2.73843C13.536 2.75428 13.5873 2.77264 13.6378 2.79353C13.6883 2.81442 13.7375 2.83773 13.7857 2.86346C13.8338 2.88919 13.8805 2.91722 13.9259 2.94755C13.9713 2.97788 14.0151 3.01035 14.0573 3.04498C14.0995 3.07961 14.1399 3.11622 14.1785 3.15482C14.2171 3.19342 14.2537 3.23382 14.2883 3.27601C14.3229 3.31821 14.3555 3.362 14.3858 3.40738C14.4161 3.45276 14.4441 3.49953 14.4699 3.54767C14.4956 3.59581 14.5189 3.64509 14.5398 3.69552C14.5607 3.74596 14.5791 3.79729 14.5949 3.84952C14.6107 3.90176 14.624 3.95464 14.6347 4.00818C14.6453 4.06172 14.6533 4.11564 14.6587 4.16997C14.664 4.22429 14.6667 4.27874 14.6667 4.33333L14.6667 10.3333C14.6667 10.3813 14.6646 10.4291 14.6605 10.4769C14.6564 10.5247 14.6502 10.5721 14.642 10.6194C14.6338 10.6666 14.6235 10.7134 14.6113 10.7597C14.5991 10.8061 14.5848 10.8518 14.5686 10.8969C14.5524 10.9421 14.5343 10.9865 14.5143 11.03C14.4942 11.0735 14.4723 11.1161 14.4487 11.1578C14.4249 11.1995 14.3995 11.2401 14.3723 11.2795C14.3451 11.319 14.3162 11.3572 14.2857 11.3942C14.2552 11.4312 14.2231 11.4668 14.1896 11.501C14.156 11.5352 14.121 11.5679 14.0846 11.5991C14.0482 11.6303 14.0105 11.6599 13.9716 11.6879C13.9327 11.7158 13.8926 11.7421 13.8513 11.7665C13.8101 11.791 13.7679 11.8137 13.7248 11.8345C13.6816 11.8554 13.6376 11.8743 13.5928 11.8914C13.548 11.9084 13.5025 11.9235 13.4564 11.9367C13.4103 11.9498 13.3637 11.9609 13.3167 11.97C13.3041 11.8961 13.2845 11.8241 13.2579 11.7541C13.2314 11.6839 13.1985 11.617 13.1591 11.5533C13.1197 11.4895 13.0745 11.4301 13.0236 11.3751C12.9727 11.32 12.9171 11.2703 12.8567 11.226L12.6307 11L13 11C13.0438 11 13.0871 10.9957 13.1301 10.9872C13.173 10.9787 13.2147 10.966 13.2551 10.9493C13.2956 10.9325 13.334 10.912 13.3704 10.8877C13.4068 10.8633 13.4405 10.8357 13.4714 10.8047C13.5023 10.7738 13.53 10.7401 13.5543 10.7037C13.5787 10.6673 13.5992 10.6289 13.6159 10.5885C13.6327 10.548 13.6453 10.5063 13.6539 10.4634C13.6624 10.4205 13.6667 10.3771 13.6667 10.3333L13.6667 4.33333C13.6667 4.28956 13.6624 4.2462 13.6539 4.20327C13.6453 4.16034 13.6327 4.11865 13.6159 4.07821C13.5992 4.03776 13.5787 3.99934 13.5543 3.96295C13.53 3.92656 13.5023 3.89288 13.4714 3.86192C13.4405 3.83097 13.4068 3.80334 13.3704 3.77902C13.334 3.7547 13.2956 3.73416 13.2551 3.71741C13.2147 3.70066 13.173 3.68801 13.1301 3.67947C13.0871 3.67093 13.0438 3.66666 13 3.66666ZM7.52 6.81333C7.48502 6.7784 7.44575 6.74931 7.4022 6.72606C7.3586 6.70278 7.31255 6.68631 7.26407 6.67666C7.21562 6.66705 7.1668 6.66467 7.1176 6.66953C7.06845 6.67438 7.02105 6.68624 6.9754 6.70513C6.92975 6.72402 6.88782 6.74913 6.8496 6.78046C6.81138 6.81184 6.77853 6.84806 6.75107 6.88913C6.7236 6.9302 6.70267 6.97435 6.68827 7.0216C6.67391 7.06888 6.66671 7.11724 6.66667 7.16666L6.66667 14.1667C6.66667 14.1931 6.66875 14.2195 6.67293 14.2457C6.67711 14.2719 6.68333 14.2975 6.6916 14.3227C6.69991 14.3479 6.71013 14.3723 6.72227 14.3959C6.7344 14.4194 6.74833 14.4419 6.76407 14.4632C6.7798 14.4845 6.79711 14.5045 6.816 14.5231C6.83489 14.5417 6.85513 14.5587 6.87673 14.5741C6.89829 14.5894 6.92095 14.6029 6.94473 14.6147C6.96847 14.6265 6.993 14.6363 7.01833 14.6442C7.04362 14.6521 7.0694 14.6579 7.09567 14.6617C7.12189 14.6654 7.14825 14.6671 7.17473 14.6667C7.20127 14.6662 7.22758 14.6637 7.25367 14.6591C7.27975 14.6545 7.30533 14.6478 7.3304 14.6391C7.35542 14.6305 7.37962 14.6199 7.403 14.6073C7.42638 14.5948 7.4486 14.5805 7.46967 14.5645C7.49073 14.5484 7.51042 14.5307 7.52873 14.5115C7.547 14.4923 7.56365 14.4718 7.57867 14.45L9.22333 12.058L12.0633 12.656C12.0895 12.6615 12.1159 12.6649 12.1427 12.6661C12.1694 12.6674 12.1961 12.6665 12.2227 12.6635C12.2493 12.6605 12.2754 12.6554 12.3012 12.6481C12.3269 12.6409 12.3519 12.6317 12.3763 12.6205C12.4005 12.6092 12.4237 12.5961 12.4459 12.5812C12.4681 12.5662 12.4889 12.5496 12.5085 12.5313C12.528 12.5129 12.5459 12.4932 12.5623 12.472C12.5786 12.4508 12.5931 12.4285 12.6059 12.4049C12.6186 12.3814 12.6294 12.3571 12.6383 12.3318C12.6471 12.3065 12.6538 12.2807 12.6585 12.2544C12.6632 12.2281 12.6657 12.2015 12.6662 12.1747C12.6667 12.148 12.6649 12.1213 12.6611 12.0949C12.6573 12.0684 12.6513 12.0424 12.6433 12.0169C12.6353 11.9913 12.6253 11.9667 12.6133 11.9427C12.6013 11.9188 12.5875 11.8959 12.5719 11.8743C12.5562 11.8526 12.5389 11.8323 12.52 11.8133L7.52 6.81333ZM7.66667 12.5567L7.66667 8.374L10.624 11.3307L9.10333 11.0107C9.055 11.0005 9.0062 10.9975 8.957 11.0019C8.90773 11.0062 8.8602 11.0175 8.81433 11.0359C8.76847 11.0543 8.72627 11.0789 8.68773 11.1099C8.64913 11.1407 8.61593 11.1766 8.588 11.2173L7.66667 12.5567Z"   fill="#333333" ></path></svg>