<svg xmlns="http://www.w3.org/2000/svg" xmlns:xlink="http://www.w3.org/1999/xlink" width="16" height="16" viewBox="0 0 16 16" fill="none"><path d="M1.75711 1.4L1.67712 1.4C1.66353 1.4 1.64479 1.41143 1.63141 1.41143C1.61802 1.41143 1.61018 1.42286 1.59712 1.42286C1.58406 1.42286 1.57545 1.43428 1.56284 1.43428C1.55023 1.43428 1.52916 1.44571 1.51713 1.44571C1.50509 1.44571 1.48285 1.46857 1.48285 1.46857L1.44856 1.49142L1.42571 1.52571L1.39142 1.54856L1.36857 1.58284C1.36857 1.58284 1.34571 1.60509 1.34571 1.61713C1.34571 1.62916 1.33429 1.65023 1.33429 1.66284C1.33429 1.67545 1.32286 1.68406 1.32286 1.69712C1.32286 1.71018 1.31143 1.71802 1.31143 1.7314C1.31143 1.74479 1.3 1.76353 1.3 1.77712L1.3 1.85711C1.3 1.87069 1.31143 1.88943 1.31143 1.90282C1.31143 1.9162 1.32286 1.92404 1.32286 1.9371C1.32286 1.95016 1.33429 1.95878 1.33429 1.97139C1.33429 1.984 1.34571 2.00506 1.34571 2.0171C1.34571 2.02913 1.36857 2.05138 1.36857 2.05138L1.39142 2.08566L1.42571 2.10852L2.20279 2.8856C2.16934 2.90163 2.13219 2.9244 2.09994 2.94274C2.0677 2.96108 2.03939 2.97932 2.00852 2.99988C1.97764 3.02044 1.94645 3.04577 1.9171 3.06844C1.88774 3.09112 1.85337 3.11233 1.82568 3.13701C1.79799 3.16169 1.77157 3.17901 1.74568 3.20558C1.71979 3.23215 1.70108 3.26868 1.67712 3.297C1.65316 3.32532 1.63046 3.34706 1.60855 3.37699C1.58663 3.40692 1.55974 3.43701 1.53998 3.46841C1.52022 3.49981 1.50035 3.53856 1.48285 3.57126C1.46534 3.60395 1.4523 3.64025 1.43714 3.67411C1.42197 3.70795 1.40418 3.74212 1.39142 3.77696C1.37867 3.8118 1.35714 3.84417 1.35714 3.87981C1.35714 3.91545 1.33429 3.9464 1.33429 3.98266C1.33429 4.01894 1.31143 4.06021 1.31143 4.09694C1.31143 4.13367 1.3 4.16278 1.3 4.19979L1.3 10.565C1.3 10.5909 1.31143 10.6078 1.31143 10.6336C1.31143 10.6593 1.32286 10.6879 1.32286 10.7136C1.32286 10.7392 1.33429 10.7681 1.33429 10.7936C1.33429 10.819 1.34571 10.837 1.34571 10.8621C1.34571 10.8873 1.36857 10.9173 1.36857 10.9421C1.36857 10.9669 1.39142 10.9863 1.39142 11.0107C1.39142 11.0351 1.42571 11.0668 1.42571 11.0907C1.42571 11.1146 1.44856 11.1358 1.44856 11.1592C1.44856 11.1827 1.47063 11.2049 1.48285 11.2278C1.49506 11.2507 1.51524 11.2742 1.52856 11.2964C1.54188 11.3186 1.54845 11.3434 1.56284 11.3649C1.57723 11.3865 1.59312 11.4013 1.60855 11.4221C1.62399 11.4429 1.63783 11.4706 1.65426 11.4907C1.6707 11.5107 1.694 11.5286 1.7114 11.5478C1.7288 11.567 1.75022 11.5866 1.76854 11.6049C1.78686 11.6232 1.80648 11.6332 1.82568 11.6506C1.84488 11.668 1.86279 11.6913 1.88282 11.7078C1.90284 11.7242 1.91914 11.7381 1.93995 11.7535C1.96077 11.7689 1.98698 11.7848 2.00852 11.7992C2.03006 11.8136 2.04344 11.8316 2.06566 11.8449C2.08788 11.8582 2.11137 11.867 2.13422 11.8792C2.15707 11.8914 2.17937 11.9135 2.20279 11.9135C2.22621 11.9135 2.25885 11.9478 2.28278 11.9478C2.30672 11.9478 2.32696 11.9706 2.35135 11.9706C2.37575 11.9706 2.39512 11.9935 2.41992 11.9935C2.44471 11.9935 2.47478 12.0163 2.49991 12.0163C2.52504 12.0163 2.55449 12.0392 2.5799 12.0392C2.60532 12.0392 2.62284 12.0506 2.64847 12.0506C2.6741 12.0506 2.70268 12.062 2.72846 12.062L10.2479 12.062L9.41366 11.2278L2.80846 11.2278C2.78401 11.2278 2.76398 11.2164 2.73989 11.2164C2.7158 11.2164 2.6834 11.205 2.6599 11.205C2.63639 11.205 2.61403 11.1707 2.59133 11.1707C2.56864 11.1707 2.55586 11.1594 2.53419 11.1478C2.51253 11.1362 2.48605 11.1157 2.46563 11.1021C2.44521 11.0884 2.42748 11.0834 2.40849 11.0678C2.3895 11.0522 2.36872 11.0281 2.35135 11.0107C2.33398 10.9933 2.32122 10.9725 2.30564 10.9536C2.29006 10.9346 2.27357 10.9168 2.25993 10.8964C2.24628 10.876 2.23722 10.8609 2.22565 10.8393C2.21407 10.8176 2.19136 10.7934 2.19136 10.7707C2.19136 10.748 2.16851 10.7256 2.16851 10.7021C2.16851 10.6786 2.14565 10.6577 2.14565 10.6336C2.14565 10.6095 2.13422 10.578 2.13422 10.5536L2.13422 4.2455C2.13422 4.22117 2.14565 4.18948 2.14565 4.1655C2.14565 4.14155 2.16851 4.12034 2.16851 4.09694C2.16851 4.07353 2.19136 4.05097 2.19136 4.02837C2.19136 4.00578 2.21418 3.98138 2.22565 3.9598C2.23711 3.93823 2.24641 3.92304 2.25993 3.90267C2.27344 3.88231 2.2902 3.86446 2.30564 3.84553C2.32108 3.82657 2.33414 3.80575 2.35135 3.78839C2.36856 3.77105 2.38967 3.75828 2.40849 3.74268C2.42731 3.7271 2.44538 3.71066 2.46563 3.69697C2.48588 3.6833 2.50128 3.67433 2.52277 3.66268C2.54425 3.65104 2.56881 3.6284 2.59133 3.6284C2.61386 3.6284 2.63656 3.60555 2.6599 3.60555C2.68323 3.60555 2.70453 3.58269 2.72846 3.58269C2.75239 3.58269 2.78415 3.57126 2.80846 3.57126L2.87702 3.57126L6.63673 7.31955L7.47096 8.15377L10.545 11.2392L10.8536 11.5478L12.7734 13.4676L12.8077 13.4905L12.842 13.5248C12.842 13.5248 12.8643 13.5362 12.8763 13.5362C12.8883 13.5362 12.898 13.5591 12.9105 13.5591C12.9231 13.5591 12.9432 13.5705 12.9562 13.5705C12.9693 13.5705 12.9772 13.5819 12.9905 13.5819L13.0362 13.5819C13.0498 13.5819 13.0569 13.5933 13.0705 13.5933C13.0841 13.5933 13.1026 13.5819 13.1162 13.5819L13.1505 13.5819C13.1639 13.5819 13.1832 13.5705 13.1962 13.5705C13.2093 13.5705 13.2179 13.5591 13.2305 13.5591C13.2431 13.5591 13.2528 13.5362 13.2648 13.5362C13.2768 13.5362 13.2991 13.5134 13.2991 13.5134L13.3334 13.4905L13.3676 13.4676L13.3905 13.4334L13.4134 13.3991C13.4134 13.3991 13.4362 13.3768 13.4362 13.3648C13.4362 13.3528 13.4591 13.3431 13.4591 13.3305C13.4591 13.3179 13.4705 13.3093 13.4705 13.2962C13.4705 13.2832 13.4819 13.2639 13.4819 13.2505L13.4819 13.2162C13.4819 13.2026 13.4933 13.1841 13.4933 13.1705C13.4933 13.1569 13.4819 13.1498 13.4819 13.1362L13.4819 13.0905C13.4819 13.0772 13.4705 13.0693 13.4705 13.0562C13.4705 13.0432 13.4591 13.0231 13.4591 13.0105C13.4591 12.998 13.4362 12.9883 13.4362 12.9763C13.4362 12.9643 13.4248 12.942 13.4248 12.942L13.3905 12.9077L13.3676 12.8734L12.5563 12.062L13.2077 12.062C13.2335 12.062 13.2621 12.0506 13.2877 12.0506C13.3132 12.0506 13.3308 12.0392 13.3562 12.0392C13.3816 12.0392 13.4111 12.0163 13.4362 12.0163C13.4614 12.0163 13.4914 11.9935 13.5162 11.9935C13.541 11.9935 13.5604 11.9706 13.5848 11.9706C13.6003 11.9706 13.6163 11.9592 13.6305 11.9592L13.6419 11.9592L13.6533 11.9478C13.6772 11.9478 13.7099 11.9135 13.7333 11.9135C13.7568 11.9135 13.779 11.8914 13.8019 11.8792C13.8248 11.867 13.8483 11.8582 13.8705 11.8449C13.8926 11.8316 13.906 11.8136 13.9276 11.7992C13.9492 11.7848 13.9754 11.7689 13.9962 11.7535C14.017 11.7381 14.0333 11.7242 14.0533 11.7078C14.0733 11.6913 14.0912 11.668 14.1104 11.6506C14.1296 11.6332 14.1493 11.6232 14.1676 11.6049C14.1859 11.5866 14.2074 11.567 14.2247 11.5478C14.2421 11.5286 14.2654 11.5107 14.2819 11.4907C14.2983 11.4706 14.3121 11.4429 14.3276 11.4221C14.343 11.4013 14.3589 11.3865 14.3733 11.3649C14.3877 11.3434 14.3942 11.3186 14.4076 11.2964C14.4209 11.2742 14.441 11.2507 14.4533 11.2278C14.4655 11.2049 14.4876 11.1827 14.4876 11.1592C14.4876 11.1358 14.5104 11.1146 14.5104 11.0907C14.5104 11.0668 14.5447 11.0351 14.5447 11.0107C14.5447 10.9863 14.5676 10.9669 14.5676 10.9421L14.579 10.9193C14.579 10.9017 14.5904 10.8784 14.5904 10.8621C14.5904 10.837 14.6018 10.819 14.6018 10.7936C14.6018 10.7681 14.6133 10.7392 14.6133 10.7136C14.6133 10.6879 14.6247 10.6593 14.6247 10.6336C14.6247 10.6078 14.6361 10.5909 14.6361 10.565L14.6361 9.53652L14.6361 4.23407C14.6361 4.20821 14.6247 4.19129 14.6247 4.1655C14.6247 4.13973 14.6133 4.11115 14.6133 4.08551C14.6133 4.05989 14.6018 4.03094 14.6018 4.00552C14.6018 3.98012 14.5904 3.9621 14.5904 3.93695C14.5904 3.91182 14.5676 3.88175 14.5676 3.85696C14.5676 3.83218 14.5447 3.81279 14.5447 3.78839C14.5447 3.76399 14.5104 3.73232 14.5104 3.7084C14.5104 3.68444 14.4761 3.66326 14.4761 3.63983C14.4761 3.6164 14.4541 3.59411 14.4418 3.57126C14.4296 3.5484 14.4209 3.52492 14.4076 3.5027C14.3942 3.48047 14.3763 3.45568 14.3619 3.43413C14.3475 3.4126 14.3316 3.3978 14.3161 3.37699C14.3007 3.35618 14.2869 3.32846 14.2704 3.30843C14.254 3.28839 14.2421 3.27049 14.2247 3.25129C14.2074 3.23209 14.1859 3.21247 14.1676 3.19415C14.1493 3.17583 14.1296 3.16584 14.1104 3.14844C14.0912 3.13103 14.0733 3.10773 14.0533 3.0913C14.0332 3.07487 14.017 3.06103 13.9962 3.04559C13.9754 3.03015 13.9491 3.01428 13.9276 2.99988C13.906 2.98548 13.8812 2.96749 13.859 2.95417C13.8368 2.94084 13.8133 2.9321 13.7905 2.91988C13.7676 2.90767 13.7453 2.8856 13.7219 2.8856C13.6985 2.8856 13.6772 2.85132 13.6533 2.85132C13.6295 2.85132 13.6091 2.82846 13.5848 2.82846C13.5604 2.82846 13.5296 2.80561 13.5048 2.80561C13.48 2.80561 13.4614 2.78275 13.4362 2.78275C13.4111 2.78275 13.3816 2.7599 13.3562 2.7599C13.3307 2.7599 13.3018 2.74847 13.2762 2.74847C13.2505 2.74847 13.2334 2.73704 13.2077 2.73704L4.39691 2.73704L5.23113 3.57126L13.1277 3.57126C13.1521 3.57126 13.1721 3.58269 13.1962 3.58269C13.2203 3.58269 13.2413 3.59412 13.2648 3.59412C13.2883 3.59412 13.3106 3.6284 13.3334 3.6284C13.3561 3.6284 13.3802 3.63968 13.4019 3.65126C13.4236 3.66283 13.45 3.68332 13.4705 3.69697C13.4908 3.71061 13.5087 3.71567 13.5276 3.73125C13.5466 3.74683 13.5674 3.77102 13.5848 3.78839C13.6021 3.80576 13.6149 3.82656 13.6305 3.84553C13.646 3.86453 13.6625 3.88224 13.6762 3.90267C13.6898 3.92309 13.6988 3.93814 13.7105 3.9598C13.722 3.98145 13.7448 4.00566 13.7448 4.02837C13.7448 4.05105 13.7676 4.07343 13.7676 4.09694C13.7676 4.12042 13.779 4.14141 13.779 4.1655C13.779 4.18962 13.7905 4.22105 13.7905 4.2455C13.7905 4.26994 13.8019 4.2895 13.8019 4.31406L13.8019 10.485C13.8019 10.5096 13.7905 10.5291 13.7905 10.5536C13.7905 10.578 13.779 10.6095 13.779 10.6336C13.779 10.6577 13.7676 10.6786 13.7676 10.7021C13.7676 10.7256 13.7448 10.748 13.7448 10.7707C13.7448 10.7934 13.722 10.8176 13.7105 10.8393C13.6988 10.8609 13.6898 10.876 13.6762 10.8964C13.6625 10.9168 13.646 10.9346 13.6305 10.9536C13.6149 10.9725 13.6021 10.9933 13.5848 11.0107C13.5674 11.0281 13.5466 11.0522 13.5276 11.0678C13.5087 11.0834 13.4908 11.0884 13.4705 11.1021C13.45 11.1157 13.4236 11.1362 13.4019 11.1478C13.3802 11.1594 13.3561 11.1707 13.3334 11.1707C13.3106 11.1707 13.2883 11.205 13.2648 11.205C13.2413 11.205 13.2203 11.2164 13.1962 11.2164C13.1721 11.2164 13.1521 11.2278 13.1277 11.2278L12.8991 11.2278L12.362 11.2278L11.6992 11.2164L11.3678 10.885L11.105 10.6107L7.34525 6.85101L2.00852 1.52571L1.98566 1.49142L1.95138 1.46857C1.95138 1.46857 1.92913 1.44571 1.9171 1.44571C1.90506 1.44571 1.884 1.43428 1.87139 1.43428C1.85878 1.43428 1.85017 1.42286 1.8371 1.42286C1.82405 1.42286 1.8162 1.41143 1.80282 1.41143C1.78944 1.41143 1.77069 1.4 1.75711 1.4Z"   fill="#333333" ></path></svg>