<svg xmlns="http://www.w3.org/2000/svg" xmlns:xlink="http://www.w3.org/1999/xlink" width="24" height="24" viewBox="0 0 24 24" fill="none"><path d="M21.8781 1.63226C21.8781 2.53373 21.1444 3.26451 20.2392 3.26451C19.3342 3.26451 18.6005 2.53373 18.6005 1.63226C18.6005 0.730786 19.3342 0 20.2392 0C21.1444 0 21.8781 0.730786 21.8781 1.63226Z"   fill="url(#linear_fill_dAX_Vqq_5dFen9WTEl4B2)" ></path><path d="M21.8781 1.63226C21.8781 2.53373 21.1444 3.26451 20.2392 3.26451C19.3342 3.26451 18.6005 2.53373 18.6005 1.63226C18.6005 0.730786 19.3342 0 20.2392 0C21.1444 0 21.8781 0.730786 21.8781 1.63226Z"   fill="#7C7C7C" ></path><path d="M16.3061 3.26452C16.3061 4.16599 15.5724 4.89677 14.6673 4.89677C13.7622 4.89677 13.0285 4.16599 13.0285 3.26452C13.0285 2.36305 13.7622 1.63226 14.6673 1.63226C15.5724 1.63226 16.3061 2.36305 16.3061 3.26452Z"   fill="url(#linear_fill_mNnVxQ3IRX4XTKDQYmbw4)" ></path><path d="M16.3061 3.26452C16.3061 4.16599 15.5724 4.89677 14.6673 4.89677C13.7622 4.89677 13.0285 4.16599 13.0285 3.26452C13.0285 2.36305 13.7622 1.63226 14.6673 1.63226C15.5724 1.63226 16.3061 2.36305 16.3061 3.26452Z"   fill="#7C7C7C" ></path><path d="M6.94697 11.0268C6.94697 13.8622 8.3439 16.3726 10.4896 17.9126C11.7726 16.7673 12.5797 15.1041 12.5797 13.2532L12.5797 8.68063C12.5797 7.9919 13.0463 7.38989 13.7151 7.21532L22.0937 5.02864C23.0576 4.77707 24 5.5014 24 6.49391L24 12.0577C24 18.6532 18.6318 24 12.0098 24L11.9902 24C5.3682 24 0 18.6532 0 12.0577L0 8.21791C0 7.52667 0.469863 6.9231 1.14203 6.75092L5.04736 5.75056C6.00968 5.50407 6.94697 6.2279 6.94697 7.21757L6.94697 11.0268ZM1.73808 12.0577C1.73808 14.3537 2.49892 16.4728 3.7832 18.1783C4.38498 18.9775 5.30158 19.5082 6.29967 19.5082C7.2498 19.5082 8.15061 19.298 8.95788 18.9219C6.66892 17.0488 5.20889 14.2076 5.2089 11.0268L5.2089 7.49665L1.73808 8.38575L1.73808 12.0577Z" fill-rule="evenodd"  fill="url(#linear_fill_Z0w64c3HDoYpJ2M_Vojhn)" ></path><path d="M6.94697 11.0268C6.94697 13.8622 8.3439 16.3726 10.4896 17.9126C11.7726 16.7673 12.5797 15.1041 12.5797 13.2532L12.5797 8.68063C12.5797 7.9919 13.0463 7.38989 13.7151 7.21532L22.0937 5.02864C23.0576 4.77707 24 5.5014 24 6.49391L24 12.0577C24 18.6532 18.6318 24 12.0098 24L11.9902 24C5.3682 24 0 18.6532 0 12.0577L0 8.21791C0 7.52667 0.469863 6.9231 1.14203 6.75092L5.04736 5.75056C6.00968 5.50407 6.94697 6.2279 6.94697 7.21757L6.94697 11.0268ZM1.73808 12.0577C1.73808 14.3537 2.49892 16.4728 3.7832 18.1783C4.38498 18.9775 5.30158 19.5082 6.29967 19.5082C7.2498 19.5082 8.15061 19.298 8.95788 18.9219C6.66892 17.0488 5.20889 14.2076 5.2089 11.0268L5.2089 7.49665L1.73808 8.38575L1.73808 12.0577Z" fill-rule="evenodd"  fill="#7C7C7C" ></path><defs><linearGradient id="linear_fill_dAX_Vqq_5dFen9WTEl4B2" x1="15.054718017578125" y1="7.3691558837890625" x2="13.537666320800781" y2="21.496719360351562" gradientUnits="userSpaceOnUse"><stop offset="0" stop-color="#FFFFFF"  /><stop offset="1" stop-color="#2E2E2E"  /></linearGradient><linearGradient id="linear_fill_mNnVxQ3IRX4XTKDQYmbw4" x1="15.054702758789062" y1="7.369163513183594" x2="13.537651062011719" y2="21.496726989746094" gradientUnits="userSpaceOnUse"><stop offset="0" stop-color="#FFFFFF"  /><stop offset="1" stop-color="#2E2E2E"  /></linearGradient><linearGradient id="linear_fill_Z0w64c3HDoYpJ2M_Vojhn" x1="15.054702758789062" y1="7.369148254394531" x2="13.537651062011719" y2="21.4967041015625" gradientUnits="userSpaceOnUse"><stop offset="0" stop-color="#FFFFFF"  /><stop offset="1" stop-color="#2E2E2E"  /></linearGradient></defs></svg>